<?xml version="1.0" standalone="no"?>
<!DOCTYPE svg PUBLIC "-//W3C//DTD SVG 20010904//EN"
 "http://www.w3.org/TR/2001/REC-SVG-20010904/DTD/svg10.dtd">
<svg version="1.0" xmlns="http://www.w3.org/2000/svg"
 width="263.000000pt" height="265.000000pt" viewBox="0 0 263.000000 265.000000"
 preserveAspectRatio="xMidYMid meet">

<g transform="translate(0.000000,265.000000) scale(0.100000,-0.100000)"
fill="#ff0000" stroke="none">
<path d="M670 2486 c-140 -71 -257 -137 -273 -153 -15 -16 -100 -168 -189
-339 -137 -263 -161 -316 -162 -355 -1 -32 5 -53 17 -67 10 -10 132 -75 272
-143 l255 -123 0 -541 c0 -297 5 -558 10 -579 11 -51 38 -86 86 -113 l39 -23
595 0 595 0 39 23 c48 27 75 62 86 113 5 21 10 282 10 579 l0 540 255 124
c140 68 262 133 272 143 12 14 18 35 17 67 -1 39 -24 90 -163 356 -89 171
-174 323 -189 339 -15 16 -135 82 -277 153 l-250 126 -105 -18 c-157 -26 -361
-31 -500 -10 -209 30 -166 40 -440 -99z m650 1 c110 0 204 6 253 15 88 16 91
14 58 -58 -28 -61 -76 -110 -139 -141 -52 -25 -67 -28 -172 -28 -96 0 -123 4
-161 21 -64 30 -114 77 -143 136 -42 84 -40 87 52 70 48 -9 142 -15 252 -15z
m-405 -35 c56 -189 254 -297 482 -263 95 14 168 46 227 101 45 41 106 146 106
181 0 10 4 20 9 24 6 3 97 -38 204 -92 l195 -97 -38 -50 c-45 -60 -92 -156
-117 -241 -16 -55 -18 -140 -23 -948 l-5 -889 -24 -19 c-22 -18 -47 -19 -611
-19 -564 0 -589 1 -611 19 l-24 19 -5 889 c-5 807 -7 893 -23 948 -24 82 -77
191 -120 245 l-35 45 192 97 c105 53 195 96 200 94 5 -1 15 -21 21 -44z m-441
-247 c40 -53 84 -151 101 -230 12 -55 15 -123 13 -321 l-3 -251 -227 110
c-147 71 -228 116 -228 125 0 19 301 602 311 602 3 0 19 -16 33 -35z m1884
-258 c84 -162 152 -300 152 -309 0 -9 -80 -54 -227 -125 l-228 -110 -3 251
c-3 279 5 342 58 454 30 63 76 132 89 132 4 0 76 -132 159 -293z"/>
</g>
</svg>
