<?xml version="1.0" standalone="no"?>
<!DOCTYPE svg PUBLIC "-//W3C//DTD SVG 20010904//EN"
 "http://www.w3.org/TR/2001/REC-SVG-20010904/DTD/svg10.dtd">
<svg version="1.0" xmlns="http://www.w3.org/2000/svg"
 width="251.000000pt" height="283.000000pt" viewBox="0 0 251.000000 283.000000"
 preserveAspectRatio="xMidYMid meet">

<g transform="translate(0.000000,283.000000) scale(0.100000,-0.100000)"
fill="#00ff00" stroke="none">
<path d="M605 2541 c-177 -86 -232 -118 -279 -162 -62 -57 -112 -126 -139
-195 -32 -82 -159 -585 -153 -607 4 -16 63 -55 221 -145 l215 -124 0 -448 c0
-261 4 -470 10 -501 21 -109 81 -158 255 -202 188 -49 285 -61 505 -61 220 0
317 12 505 61 174 44 234 93 255 202 6 31 10 240 10 501 l0 447 215 124 c159
92 217 130 221 146 6 22 -122 526 -153 607 -27 69 -76 138 -139 195 -47 44
-101 75 -274 159 -125 61 -228 105 -245 105 -16 0 -75 -13 -130 -28 -92 -26
-114 -29 -265 -29 -150 0 -174 3 -265 28 -55 16 -111 30 -125 32 -17 2 -99
-33 -245 -105z m566 -67 c100 -7 245 6 338 31 61 16 62 12 25 -62 -75 -151
-273 -222 -425 -151 -74 34 -132 87 -163 151 -38 76 -37 77 52 56 42 -11 120
-22 173 -25z m-351 -10 c17 -59 75 -149 130 -198 23 -21 72 -52 109 -70 62
-29 73 -31 181 -31 108 0 119 2 181 31 37 18 86 49 109 70 55 49 113 139 130
198 7 25 17 46 22 46 6 0 92 -40 192 -89 161 -78 187 -95 233 -144 28 -31 61
-77 73 -102 12 -26 53 -161 90 -301 l67 -255 -66 -38 c-36 -21 -110 -63 -163
-94 l-98 -56 -1 112 c-1 136 -7 159 -42 171 -21 8 -31 6 -46 -9 -20 -17 -21
-31 -23 -686 l-3 -669 -30 -29 c-24 -24 -53 -36 -146 -60 -191 -49 -327 -64
-534 -58 -99 3 -218 12 -264 21 -104 19 -267 63 -292 79 -49 31 -49 30 -49
730 l0 656 -22 15 c-28 20 -39 20 -64 2 -17 -13 -20 -31 -24 -144 l-5 -130
-160 93 c-125 73 -159 97 -157 112 2 10 33 128 69 263 95 362 113 386 388 521
99 49 185 89 191 89 6 0 17 -21 24 -46z"/>
</g>
</svg>
