<?xml version="1.0" standalone="no"?>
<!DOCTYPE svg PUBLIC "-//W3C//DTD SVG 20010904//EN"
 "http://www.w3.org/TR/2001/REC-SVG-20010904/DTD/svg10.dtd">
<svg version="1.0" xmlns="http://www.w3.org/2000/svg"
 width="259.000000pt" height="256.000000pt" viewBox="0 0 259.000000 256.000000"
 preserveAspectRatio="xMidYMid meet">

<g transform="translate(0.000000,256.000000) scale(0.100000,-0.100000)"
fill="#ffff00" stroke="none">
<path d="M990 2017 c-47 -15 -103 -74 -118 -123 -17 -58 -15 -102 8 -151 l19
-43 -55 -45 c-31 -24 -74 -50 -97 -56 -82 -22 -173 9 -216 75 -47 71 -113 133
-156 145 -120 33 -224 -22 -254 -134 -41 -156 -76 -672 -51 -762 19 -65 97
-144 161 -162 60 -17 1563 -10 1737 8 156 16 288 52 409 111 83 41 108 58 129
90 51 77 39 203 -29 291 l-32 43 -160 26 c-167 28 -361 74 -382 92 -7 5 -15
18 -18 29 -14 42 -270 215 -436 294 -69 33 -81 42 -113 95 -43 69 -108 129
-179 165 -55 27 -107 31 -167 12z m168 -107 c36 -24 74 -61 97 -95 45 -64 43
-74 -31 -146 l-44 -43 0 32 c0 97 -101 160 -185 116 -27 -14 -30 -14 -43 3
-20 27 -9 99 19 130 53 56 106 57 187 3z m-773 -184 c14 -9 39 -39 56 -66 77
-125 201 -175 337 -135 37 11 80 39 154 100 57 47 110 85 120 85 32 0 48 -29
48 -89 l0 -58 -69 -32 c-96 -44 -185 -61 -329 -61 l-122 0 -50 34 c-76 52
-153 77 -254 84 l-88 5 6 44 c11 79 53 116 123 109 24 -2 54 -11 68 -20z m994
-35 c11 -7 10 -15 -8 -44 l-22 -35 31 -22 c17 -12 32 -21 34 -19 1 2 13 19 25
37 24 35 38 39 66 19 17 -13 17 -16 -9 -53 l-27 -39 28 -22 c15 -13 30 -23 33
-23 3 0 16 18 30 40 27 43 31 45 61 30 25 -14 24 -24 -6 -68 l-26 -37 28 -22
c15 -13 30 -23 33 -23 3 0 16 18 30 40 14 22 29 40 35 40 19 0 105 -82 105
-100 0 -9 -7 -23 -15 -30 -17 -14 -46 -12 -195 15 -212 38 -340 -7 -415 -147
-15 -29 -29 -54 -30 -56 -5 -6 -166 18 -307 44 l-138 26 -39 74 -38 74 94 0
c51 0 129 7 171 16 149 30 330 139 411 248 37 49 39 50 60 37z m-958 -218 c97
-45 138 -94 225 -266 l76 -150 -113 6 c-63 4 -194 7 -293 7 l-179 0 7 118 c4
64 12 164 18 221 l11 104 92 -5 c76 -4 105 -11 156 -35z m1715 -198 c67 -14
131 -25 142 -25 40 0 32 -19 -17 -45 -100 -50 -146 -55 -531 -54 -195 1 -383
4 -418 8 l-63 6 30 46 c21 35 44 54 86 74 52 26 62 27 138 22 45 -3 118 -13
161 -23 105 -21 160 -15 198 24 l30 30 62 -19 c33 -10 116 -30 182 -44z m315
-139 c22 -80 -1 -130 -75 -168 -39 -20 -53 -20 -435 -15 -218 3 -441 10 -496
16 -82 9 -486 61 -601 77 -24 3 -34 13 -53 50 -12 26 -20 48 -18 50 2 2 48 -5
103 -16 225 -43 355 -53 784 -57 259 -3 436 -1 470 5 79 15 159 47 226 91 67
44 75 41 95 -33z m-1606 -171 c77 -8 199 -24 270 -35 239 -36 418 -51 695 -57
164 -4 257 -10 230 -14 -132 -20 -553 -30 -1152 -27 -635 3 -647 3 -674 24
-39 29 -63 63 -70 103 l-7 34 284 -6 c156 -3 347 -13 424 -22z"/>
</g>
</svg>
