<?xml version="1.0" standalone="no"?>
<!DOCTYPE svg PUBLIC "-//W3C//DTD SVG 20010904//EN"
 "http://www.w3.org/TR/2001/REC-SVG-20010904/DTD/svg10.dtd">
<svg version="1.0" xmlns="http://www.w3.org/2000/svg"
 width="162.000000pt" height="150.000000pt" viewBox="0 0 162.000000 150.000000"
 preserveAspectRatio="xMidYMid meet">

<g transform="translate(0.000000,150.000000) scale(0.100000,-0.100000)"
fill="#ffff00" stroke="none">
<path d="M199 1439 c-11 -6 -38 -211 -73 -544 -36 -333 -48 -521 -44 -680 l3
-140 85 -7 c47 -3 186 -11 309 -18 182 -9 227 -8 237 2 6 7 32 99 57 203 25
105 47 183 50 175 3 -8 15 -93 27 -187 13 -95 28 -180 34 -188 10 -13 34 -14
191 -5 216 12 423 29 448 36 12 4 17 16 17 38 0 37 -88 857 -121 1131 -11 94
-24 174 -29 179 -9 9 -1176 15 -1191 5z m1156 -85 c3 -20 4 -38 1 -41 -22 -22
-983 -28 -1093 -7 -29 6 -33 10 -33 38 0 18 3 36 7 39 3 4 255 7 559 7 l552 0
7 -36z m-1019 -108 c9 -6 -50 -99 -88 -140 l-49 -51 6 80 c10 129 7 124 73
118 32 -3 58 -6 58 -7z m1041 -73 c6 -49 9 -90 7 -92 -11 -13 -93 98 -108 146
-7 22 -4 24 75 31 14 2 18 -14 26 -85z m-137 11 c30 -62 88 -132 136 -164 21
-14 25 -43 68 -450 25 -239 44 -435 43 -437 -5 -5 -253 -23 -403 -29 l-161 -7
-6 34 c-4 19 -20 140 -36 269 -17 129 -35 264 -40 299 -10 63 -9 65 19 98 37
41 58 112 71 232 11 104 8 121 -20 121 -23 0 -31 -25 -31 -100 0 -64 -19 -152
-42 -195 l-16 -30 -6 45 c-10 71 -25 354 -19 360 2 3 91 8 196 11 106 3 197 6
203 7 6 1 26 -28 44 -64z m-506 45 c3 -3 10 -84 16 -180 6 -96 18 -214 26
-264 30 -166 30 -162 -34 -433 -33 -139 -61 -255 -63 -256 -5 -4 -353 11 -466
19 l-83 7 0 126 c0 131 6 222 36 542 l18 185 30 25 c66 54 118 116 148 178
l32 64 167 -4 c92 -2 170 -6 173 -9z"/>
</g>
</svg>
