<?xml version="1.0" standalone="no"?>
<!DOCTYPE svg PUBLIC "-//W3C//DTD SVG 20010904//EN"
 "http://www.w3.org/TR/2001/REC-SVG-20010904/DTD/svg10.dtd">
<svg version="1.0" xmlns="http://www.w3.org/2000/svg"
 width="158.000000pt" height="265.000000pt" viewBox="0 0 158.000000 265.000000"
 preserveAspectRatio="xMidYMid meet">

<g transform="translate(0.000000,265.000000) scale(0.100000,-0.100000)"
fill="#ff00ff" stroke="none">
<path d="M247 2595 c-17 -17 -32 -298 -31 -575 0 -151 2 -172 27 -245 14 -44
47 -114 72 -155 24 -41 45 -80 45 -87 0 -31 -37 -116 -90 -203 -105 -174 -157
-298 -196 -465 -23 -97 -26 -355 -6 -450 19 -90 69 -243 100 -305 l27 -55 579
-3 c409 -1 583 1 592 9 20 16 89 202 115 309 20 81 23 120 23 265 -1 150 -4
181 -26 265 -37 137 -80 242 -143 350 -74 125 -135 249 -135 272 0 11 20 54
45 96 25 42 58 113 72 157 25 73 27 94 27 245 1 277 -14 558 -31 575 -19 20
-156 21 -171 2 -6 -7 -19 -82 -29 -166 l-17 -153 -62 -39 c-83 -53 -185 -162
-220 -237 -16 -34 -31 -61 -34 -61 -3 0 -18 27 -34 61 -36 75 -137 184 -220
237 l-62 39 -18 153 c-10 85 -22 159 -28 166 -15 19 -152 17 -171 -2z m125
-210 c9 -77 17 -146 17 -152 1 -7 23 -24 49 -37 158 -80 262 -222 296 -405 21
-112 71 -112 92 0 34 180 130 316 282 397 34 18 62 39 63 45 0 7 8 75 17 152
16 128 19 140 38 143 20 3 21 -2 27 -125 19 -370 19 -467 3 -543 -16 -76 -68
-194 -106 -243 l-21 -27 -348 0 c-319 0 -349 1 -363 18 -34 38 -89 153 -109
228 -22 83 -22 187 -2 572 6 117 7 123 27 120 19 -3 22 -15 38 -143z m782
-962 c21 -49 55 -115 76 -148 169 -271 232 -549 185 -821 -17 -96 -22 -116
-67 -241 l-30 -83 -538 0 -538 0 -30 83 c-45 125 -50 145 -67 241 -47 272 16
550 185 821 21 33 55 99 76 148 l37 87 337 0 337 0 37 -87z"/>
</g>
</svg>
