<?xml version="1.0" standalone="no"?>
<!DOCTYPE svg PUBLIC "-//W3C//DTD SVG 20010904//EN"
 "http://www.w3.org/TR/2001/REC-SVG-20010904/DTD/svg10.dtd">
<svg version="1.0" xmlns="http://www.w3.org/2000/svg"
 viewBox="0 0 244.000000 265.000000"
 preserveAspectRatio="xMidYMid meet">

<g transform="translate(0.000000,265.000000) scale(0.100000,-0.100000)"
fill="#ff0000" stroke="none">
<path d="M1075 2426 c-191 -44 -356 -178 -437 -355 -32 -69 -58 -173 -58 -233
0 -35 -2 -37 -37 -40 l-38 -3 -3 -77 -3 -78 -217 -2 -217 -3 -3 -25 c-10 -70
58 -186 152 -257 226 -171 639 -265 1096 -250 230 8 427 42 614 107 33 11 65
20 72 20 11 0 54 -95 54 -120 0 -6 -52 -44 -115 -87 l-116 -77 3 -313 3 -313
28 -27 27 -28 210 0 210 0 27 28 28 27 3 314 3 313 -123 81 -123 82 -23 62
c-13 35 -25 70 -28 78 -4 11 8 22 38 36 148 73 270 227 256 324 l-3 25 -217 3
-217 2 -3 78 -3 77 -36 3 -36 3 -7 71 c-13 142 -78 278 -182 382 -117 117
-253 176 -419 182 -62 2 -123 -1 -160 -10z m258 -61 c154 -32 306 -150 380
-292 37 -72 66 -177 67 -240 l0 -33 -570 0 -570 0 0 33 c1 124 70 277 170 377
140 140 329 196 523 155z m527 -675 l0 -50 -650 0 -650 0 0 50 0 50 650 0 650
0 0 -50z m429 -137 c-17 -46 -47 -89 -87 -125 -42 -38 -153 -108 -172 -108 -6
0 -34 20 -62 44 -63 55 -110 81 -132 73 -30 -12 -18 -44 27 -70 23 -14 53 -37
67 -52 20 -22 22 -28 10 -35 -26 -16 -232 -69 -355 -91 -164 -30 -541 -33
-715 -6 -406 64 -674 197 -739 370 l-11 27 1090 0 1090 0 -11 -27z m-239 -641
c-6 -2 -23 -14 -38 -27 -23 -20 -27 -31 -27 -74 0 -42 5 -55 28 -78 38 -38
113 -40 151 -4 51 48 40 146 -19 173 -23 10 -25 17 -25 71 l0 59 29 -19 c15
-10 56 -36 89 -58 l62 -40 0 -282 c0 -243 -2 -284 -16 -297 -23 -24 -365 -24
-388 0 -14 13 -16 54 -16 297 l0 282 88 57 87 58 3 -57 c2 -36 -1 -59 -8 -61z
m74 -68 c31 -30 9 -84 -34 -84 -24 0 -50 26 -50 50 0 24 26 50 50 50 10 0 26
-7 34 -16z"/>
<path d="M294 949 c-59 -17 -126 -71 -158 -129 -26 -47 -31 -67 -34 -145 -5
-106 7 -156 51 -221 108 -158 367 -147 528 23 58 61 95 136 111 223 l12 60 46
0 46 0 12 -60 c16 -87 53 -162 111 -223 161 -170 420 -181 528 -23 44 65 56
115 51 221 -3 78 -8 98 -34 145 -33 60 -99 112 -162 130 -61 17 -336 13 -380
-6 -46 -19 -87 -57 -102 -95 -12 -27 -16 -29 -70 -29 -54 0 -58 2 -70 29 -15
38 -56 76 -102 95 -29 12 -74 16 -195 15 -87 0 -172 -5 -189 -10z m376 -67
c41 -20 70 -71 70 -123 0 -56 -36 -159 -75 -211 -81 -110 -239 -170 -360 -137
-52 15 -119 82 -134 134 -14 51 -14 159 0 209 14 50 73 113 124 131 63 22 329
20 375 -3z m725 7 c52 -15 119 -82 134 -134 14 -51 14 -159 0 -210 -7 -23 -28
-57 -53 -81 -65 -65 -145 -79 -254 -46 -119 38 -205 122 -242 241 -25 78 -25
125 -2 171 29 59 65 70 232 70 80 0 163 -5 185 -11z"/>
</g>
</svg>
